<svg xmlns="http://www.w3.org/2000/svg" viewBox="0 0 22.000004 20.114925" height="21.456" width="23.467"><path d="M12.6 19.943c.173-.112 2.332-2.231 4.797-4.708 4.739-4.762 4.72-4.738 4.553-5.529-.107-.51-8.938-9.358-9.588-9.606-.576-.22-1.148-.073-1.541.394-.335.398-.42.717-.327 1.226.062.34.506.829 3.29 3.622l3.219 3.228-7.982.03c-7.739.028-7.992.035-8.326.237-.727.44-.915 1.383-.415 2.09.43.607.209.592 8.818.592h7.908l-3.22 3.232c-2.778 2.79-3.228 3.285-3.291 3.625-.1.539.001.864.407 1.306.287.314.431.384.863.422.392.033.596-.005.835-.16z" fill="#c5ced1"/></svg>