<svg xmlns="http://www.w3.org/2000/svg" viewBox="0 0 22.000004 20.114925" height="21.456" width="23.467"><path d="M9.4 19.943c-.173-.112-2.332-2.231-4.797-4.708C-.136 10.473-.117 10.497.05 9.706.157 9.196 8.988.348 9.638.1c.576-.22 1.148-.073 1.541.394.335.398.42.717.327 1.226-.062.34-.506.829-3.29 3.622L4.997 8.57l7.982.03c7.739.028 7.992.035 8.326.237.727.44.915 1.383.415 2.09-.429.607-.209.592-8.818.592H4.994l3.22 3.232c2.778 2.79 3.228 3.285 3.291 3.625.1.539-.001.864-.407 1.306-.287.314-.431.384-.863.422-.392.033-.596-.005-.835-.16z" fill="#c5ced1"/></svg>