<svg xmlns="http://www.w3.org/2000/svg" viewBox="0 0 487.22954 487.27101" height="519.756" width="519.711"><path d="M218.006 485.967c-94.13-9.777-175.486-75.299-205.499-165.503-38.529-115.8 14.49-241.99 124.25-295.725C228.093-19.977 337.611-3.046 411.43 67.203c77.16 73.427 97.707 187.503 51.02 283.26-44.708 91.702-142.778 146.065-244.445 135.504zm118.125-135.503v-26.875h-182.5v53.75h182.5v-26.875zm-104.38-66.965c10.083-3.116 21.035-9.857 29.416-18.107 7.1-6.988 8.709-7.955 8.721-5.24.022 4.785 3.29 11.857 7.684 16.624 5.295 5.744 11.615 8.478 22.682 9.81 5.723.688 26.42-.895 32.876-2.515l3.051-.766-.337-25.75-.338-25.75-4.584-1.082c-8.933-2.111-9.08-2.64-9.894-35.7-.684-27.741-.933-30.156-4.062-39.27-3.823-11.138-7.602-17.598-14.09-24.086-14.459-14.459-37.184-21.828-67.313-21.828-24.556 0-49.673 6.128-68.68 16.757l-8.047 4.5 8.89 19.341 8.89 19.34 3.82-2.567c7.883-5.298 24.812-12.583 33.535-14.432 12.505-2.65 26.256-1.78 34.087 2.156 7.42 3.73 10.573 9.155 10.573 18.192v6.45l-7.812-2.594c-10.626-3.53-38.81-3.834-50.938-.55-17.602 4.764-32.796 15.174-41.028 28.11-12.385 19.46-9.673 45.755 6.573 63.729 6.941 7.679 22.336 15.9 33.205 17.733 8.986 1.515 23.713.401 33.12-2.505zm-12.495-42.836c-15.566-7.194-11.858-27.337 5.921-32.167 5.87-1.595 21.196-.883 28.767 1.336l4.687 1.374v8.523c0 10.272-2.099 13.59-11.686 18.471-7.8 3.972-21.741 5.212-27.689 2.463z" fill="#18a3dd"/></svg>